<svg xmlns="http://www.w3.org/2000/svg" width="45" height="45" viewBox="0 0 45 45">
  <path id="Tracé_1" data-name="Tracé 1" d="M118.675,60.984c-.046.056-.073.085-.073.085L98.18,61.1a10.645,10.645,0,0,1-6.086-2.06H86.651a14.053,14.053,0,0,0,10.921,6.043l12.848.068a18.567,18.567,0,0,1-23.127.675c-4.5-3.106-6.39-8.811-6.39-8.811h39.323a22.529,22.529,0,1,0-44.175-8.1h1.54l34.69.032a13.312,13.312,0,0,0-2.773-6.616,14.118,14.118,0,0,0-22.893.506h5.615a10.807,10.807,0,0,1,6.018-2.06A10.06,10.06,0,0,1,106.3,44.9H81.038a18.549,18.549,0,0,1,33.442-2.937s2.84,3.848,2.367,10.971H76a22.544,22.544,0,0,0,42.742,8.052Z" transform="translate(-76 -28.66)" fill="#fff"/>
</svg>
